<?xml version="1.0" standalone="no"?>
<!DOCTYPE svg PUBLIC "-//W3C//DTD SVG 20010904//EN"
 "http://www.w3.org/TR/2001/REC-SVG-20010904/DTD/svg10.dtd">
<svg version="1.0" xmlns="http://www.w3.org/2000/svg"
 width="60px" height="49px" viewBox="0 0 1921.000000 1920.000000"
 preserveAspectRatio="xMidYMid meet">

<g transform="translate(0.000000,1920.000000) scale(0.100000,-0.100000)"
fill="#000000" stroke="none">
<path d="M8965 19188 c-81 -7 -125 -14 -136 -24 -29 -26 -42 -136 -44 -373 -2
-242 -8 -278 -60 -366 -30 -52 -118 -134 -182 -170 -135 -76 -312 -102 -450
-67 -104 26 -162 60 -239 138 -81 81 -126 160 -219 377 -41 98 -87 197 -101
219 l-26 41 -92 -6 c-89 -5 -184 -29 -279 -69 -34 -15 -49 -28 -55 -47 -14
-52 -5 -207 21 -336 36 -179 42 -250 28 -330 -15 -86 -46 -147 -107 -210 -160
-166 -415 -244 -605 -185 -151 47 -256 150 -466 460 -39 58 -87 123 -106 145
l-34 40 -84 -34 c-150 -61 -309 -143 -309 -160 0 -58 30 -174 92 -356 64 -188
72 -220 76 -306 6 -117 -10 -172 -73 -258 -60 -82 -152 -153 -275 -214 l-105
-52 -105 0 c-100 0 -109 2 -180 36 -42 20 -100 53 -130 75 -75 52 -255 212
-369 327 l-93 95 -62 -35 c-71 -40 -179 -117 -252 -181 l-52 -44 38 -88 c60
-137 102 -217 174 -330 86 -134 111 -212 103 -321 -11 -169 -151 -361 -337
-462 -83 -45 -136 -59 -226 -58 -147 1 -259 54 -581 274 -94 64 -174 117 -178
117 -24 0 -236 -209 -277 -273 -30 -46 -31 -51 -18 -85 22 -63 74 -132 215
-287 174 -191 207 -251 206 -376 0 -47 -8 -108 -17 -139 -51 -172 -196 -351
-342 -422 -64 -32 -72 -33 -187 -33 -109 0 -128 3 -210 32 -50 17 -181 74
-290 127 -110 53 -208 96 -217 96 -24 0 -114 -115 -197 -250 l-69 -114 43 -56
c47 -61 117 -124 270 -245 199 -158 266 -253 273 -390 12 -216 -169 -518 -355
-594 -72 -29 -202 -39 -299 -22 -38 7 -151 32 -251 57 -100 25 -211 47 -247
51 l-64 6 -35 -70 c-38 -75 -120 -273 -130 -316 -6 -22 0 -32 46 -70 67 -58
140 -100 246 -144 133 -54 209 -100 275 -167 141 -141 171 -331 89 -559 -64
-178 -160 -285 -298 -330 -144 -48 -386 -59 -553 -27 -125 24 -144 25 -188 4
-65 -31 -95 -135 -98 -337 l-1 -112 85 -42 c47 -24 161 -65 254 -93 93 -28
194 -64 225 -80 161 -81 240 -228 241 -443 0 -104 -21 -214 -56 -293 -36 -83
-141 -184 -235 -229 -127 -60 -205 -75 -554 -105 -66 -6 -123 -14 -126 -18
-10 -12 -28 -121 -34 -212 -3 -50 0 -120 7 -170 l13 -85 140 -32 c77 -17 187
-37 245 -43 209 -22 290 -47 375 -116 113 -92 175 -251 175 -447 0 -166 -43
-273 -151 -378 -88 -86 -204 -144 -399 -199 -246 -70 -300 -90 -307 -118 -3
-13 -3 -70 0 -126 6 -108 46 -272 72 -292 18 -14 226 -37 326 -37 41 1 117 6
169 13 175 23 265 -5 378 -119 75 -75 117 -147 158 -271 23 -71 28 -103 28
-195 1 -100 -1 -115 -26 -165 -67 -136 -164 -221 -393 -346 -138 -76 -261
-149 -299 -177 -19 -14 -18 -18 23 -148 24 -74 58 -167 76 -207 l34 -72 50 0
c53 0 172 22 356 65 149 35 281 42 363 21 138 -35 246 -132 322 -291 61 -126
74 -184 68 -295 -5 -77 -11 -99 -44 -167 -31 -63 -59 -99 -144 -184 -58 -58
-153 -142 -211 -187 -58 -44 -128 -101 -155 -125 l-49 -45 49 -99 c49 -99 115
-205 158 -255 l23 -27 135 33 c166 41 184 48 341 129 136 69 169 78 263 65
235 -31 496 -316 496 -542 0 -175 -99 -340 -447 -747 -11 -14 -6 -26 44 -95
72 -101 142 -182 194 -223 l40 -33 105 41 c134 52 221 103 309 181 39 35 99
77 135 94 59 28 73 31 160 30 110 -1 169 -20 271 -86 191 -123 300 -313 286
-499 -11 -142 -43 -217 -241 -559 -36 -63 -66 -121 -66 -128 0 -23 152 -166
242 -226 l88 -59 52 24 c41 18 95 66 235 205 161 161 191 187 259 221 76 37
80 38 188 38 95 0 121 -4 184 -27 107 -39 176 -83 262 -168 105 -103 139 -183
140 -320 0 -87 -17 -155 -105 -415 -40 -121 -76 -234 -79 -250 -6 -29 -4 -32
96 -92 121 -71 166 -95 239 -122 l54 -21 63 63 c35 34 112 134 172 222 167
245 240 310 378 335 105 19 265 -11 387 -72 175 -88 263 -205 285 -380 12 -99
-5 -310 -35 -429 -63 -248 -49 -275 179 -340 55 -16 123 -29 150 -29 47 0 53
3 100 53 55 56 98 137 166 310 54 139 81 187 141 248 118 121 296 155 517 98
249 -63 356 -181 407 -447 18 -92 19 -172 4 -312 -14 -128 -2 -204 37 -241 22
-21 39 -25 132 -31 59 -3 141 -9 183 -13 122 -12 121 -13 167 117 22 62 56
183 75 269 22 95 47 180 66 216 76 151 244 248 451 260 174 10 294 -32 404
-141 126 -124 201 -301 221 -526 8 -87 19 -140 42 -192 13 -30 23 -39 52 -45
56 -12 218 -9 296 6 60 12 125 35 125 44 0 2 5 29 10 60 6 31 12 159 14 284 3
205 5 235 25 292 54 155 163 249 356 306 103 31 260 39 330 18 107 -33 248
-149 330 -273 53 -79 73 -125 130 -290 24 -69 51 -142 60 -163 l16 -38 47 7
c47 6 289 65 348 85 27 8 34 17 44 57 18 74 13 188 -16 328 -18 86 -27 164
-28 234 -1 100 1 109 31 171 59 119 178 219 332 278 205 79 375 55 531 -74 77
-63 137 -139 236 -295 161 -254 142 -232 195 -226 60 6 149 43 249 102 121 72
123 75 115 148 -7 57 -31 136 -121 386 -34 94 -38 115 -39 205 0 91 3 105 29
160 37 74 107 150 209 226 149 111 278 153 397 130 140 -28 244 -98 467 -314
224 -216 188 -197 280 -147 82 44 199 128 246 178 l29 30 -17 58 c-9 32 -66
154 -126 270 -61 120 -116 240 -125 276 -40 154 9 293 155 439 188 188 367
229 597 140 93 -36 217 -110 394 -234 124 -87 137 -93 155 -81 36 25 222 215
253 258 l30 42 -28 60 c-32 64 -71 113 -228 285 -128 141 -163 207 -170 317
-12 217 149 481 357 583 56 28 79 33 161 37 128 6 212 -16 416 -108 88 -39
192 -86 232 -103 l73 -31 35 39 c49 57 151 209 185 277 l30 59 -30 43 c-39 57
-108 118 -234 207 -207 148 -267 234 -275 397 -6 118 14 204 74 329 79 164
196 266 345 300 63 14 88 15 174 5 55 -6 134 -21 175 -32 212 -58 344 -90 373
-90 30 0 36 6 81 85 65 114 97 197 103 265 5 50 3 59 -18 80 -54 51 -132 101
-264 171 -77 40 -163 87 -190 105 -61 38 -126 107 -155 163 -64 127 -33 408
63 570 42 70 132 152 204 186 103 49 208 60 438 47 255 -16 322 -15 332 1 4 6
15 39 24 72 9 33 28 100 42 149 45 147 35 202 -41 250 -63 39 -241 105 -346
127 -131 28 -170 46 -237 107 -97 88 -139 197 -139 358 0 123 22 234 64 319
46 91 86 139 159 186 93 61 213 92 457 119 52 6 136 18 187 27 l92 17 15 65
c24 109 28 182 16 272 -13 92 -30 121 -84 138 -54 17 -187 39 -281 46 -133 10
-246 31 -299 55 -144 68 -247 238 -265 437 -24 276 64 434 311 563 108 57 196
88 280 101 195 28 248 63 248 161 0 46 -67 337 -81 352 -4 5 -72 17 -151 28
-136 18 -149 18 -277 2 -158 -19 -224 -15 -297 21 -107 53 -222 198 -265 335
-69 222 -36 391 103 537 80 84 169 142 379 248 92 47 175 92 184 102 45 45
-38 320 -125 412 l-31 34 -83 -7 c-53 -4 -141 -22 -237 -50 -85 -25 -185 -50
-222 -57 -206 -35 -370 72 -496 322 -84 166 -90 280 -22 425 66 142 160 241
525 555 12 11 -76 190 -147 297 -49 74 -66 92 -82 89 -11 -3 -81 -21 -155 -42
-140 -38 -194 -61 -320 -136 -74 -44 -75 -44 -170 -44 -86 0 -101 3 -160 31
-89 43 -182 115 -245 192 -160 193 -186 371 -84 573 46 92 181 261 372 465 35
39 33 50 -30 142 -60 88 -149 188 -196 223 -34 25 -42 26 -70 16 -56 -19 -140
-73 -306 -196 -200 -148 -238 -165 -371 -158 -73 3 -108 10 -152 30 -172 77
-321 233 -368 386 -55 178 -6 353 204 720 42 73 76 138 76 144 0 19 -181 174
-292 251 l-57 38 -33 -23 c-18 -13 -111 -99 -206 -191 -254 -245 -322 -284
-487 -276 -67 3 -106 11 -153 30 -161 66 -290 175 -350 296 l-37 76 0 131 c1
148 14 209 95 440 40 115 70 229 70 266 0 12 -157 108 -243 149 -130 62 -124
62 -201 -17 -85 -87 -142 -164 -201 -272 -94 -170 -156 -230 -275 -265 -179
-53 -455 23 -602 167 -151 146 -175 286 -113 640 18 105 25 175 23 239 l-3 90
-105 39 c-142 52 -238 79 -287 79 -34 0 -42 -4 -47 -23 -3 -12 -39 -79 -80
-147 -57 -95 -82 -149 -105 -227 -39 -133 -59 -171 -123 -228 -121 -110 -288
-140 -494 -90 -160 39 -299 137 -357 252 -66 129 -101 343 -91 548 8 172 0
204 -59 243 -39 26 -47 27 -190 30 -227 6 -205 18 -266 -155 -28 -80 -56 -177
-61 -215 -6 -37 -15 -100 -20 -139 -15 -101 -43 -160 -106 -219 -97 -92 -243
-140 -422 -140 -175 1 -290 43 -383 142 -90 94 -135 201 -199 473 -54 233 -72
286 -98 296 -28 11 -122 10 -287 -3z m1566 -1267 c362 -75 1131 -285 1564
-428 1107 -365 1965 -780 2575 -1246 331 -253 710 -621 1021 -992 573 -682
1185 -1699 1556 -2585 22 -51 13 -39 -178 230 -218 309 -369 519 -528 735
-421 572 -746 857 -1101 966 -107 33 -304 34 -403 1 -146 -47 -295 -143 -462
-296 -46 -42 -86 -76 -89 -76 -5 0 -908 639 -1524 1079 -242 173 -379 277
-375 285 4 6 26 39 49 73 138 202 204 398 184 543 -32 226 -272 509 -673 790
-291 204 -572 363 -1127 636 -228 112 -460 226 -515 253 -55 28 -93 50 -84 50
9 1 59 -8 110 -18z m-2596 -410 c-6 -5 -95 -47 -200 -94 -551 -246 -1076 -506
-1325 -654 -414 -248 -668 -528 -746 -823 -20 -74 -20 -229 0 -312 32 -138
119 -322 213 -450 19 -27 33 -52 31 -57 -1 -5 -370 -367 -818 -804 l-814 -795
-56 49 c-226 204 -357 276 -515 286 -63 4 -97 1 -158 -16 -227 -62 -502 -258
-788 -562 -299 -316 -467 -527 -971 -1213 -92 -125 -168 -225 -168 -222 0 18
139 348 247 586 232 509 636 1261 921 1715 332 528 701 1004 1052 1355 841
844 2232 1550 3875 1966 229 57 234 58 220 45z m2325 -916 c196 -8 380 -43
913 -174 493 -121 739 -201 847 -274 161 -109 281 -274 341 -467 20 -65 23
-96 23 -230 0 -140 -3 -164 -27 -243 -54 -174 -123 -287 -352 -572 -188 -234
-231 -298 -305 -450 -88 -182 -120 -311 -121 -499 -1 -131 9 -199 47 -316 52
-161 131 -289 258 -416 212 -211 427 -309 706 -321 250 -10 449 45 645 177
134 91 218 189 448 523 125 182 362 482 457 578 36 36 89 78 119 93 170 87
482 70 696 -37 258 -129 555 -529 893 -1202 457 -912 687 -1769 751 -2805 45
-716 -12 -1338 -184 -2006 -305 -1186 -790 -2086 -1375 -2556 -272 -217 -496
-308 -764 -308 -187 0 -272 37 -417 180 -106 105 -162 184 -263 370 -140 256
-255 404 -416 533 -214 170 -421 253 -660 264 -501 22 -945 -294 -1086 -772
-36 -123 -45 -330 -19 -455 42 -206 102 -325 315 -625 331 -466 440 -707 440
-968 0 -199 -80 -381 -229 -526 -196 -190 -403 -272 -951 -375 -954 -180
-1909 -179 -2785 4 -496 103 -904 233 -1429 454 -347 146 -500 238 -652 390
-144 145 -209 264 -234 431 -25 167 2 283 117 503 108 204 158 263 395 469
214 185 318 288 399 395 271 360 328 740 164 1093 -124 267 -347 481 -604 580
-137 53 -226 68 -396 68 -170 1 -256 -16 -394 -77 -168 -74 -257 -143 -544
-423 -379 -371 -487 -460 -652 -539 -115 -55 -214 -78 -335 -78 -129 0 -197
16 -315 74 -230 113 -395 328 -553 720 -93 231 -236 650 -311 910 -291 1015
-346 1996 -170 3030 110 644 354 1405 644 2005 158 326 329 502 572 588 85 30
94 32 253 32 187 0 245 -11 367 -71 138 -68 246 -163 451 -394 319 -360 461
-485 656 -580 233 -113 522 -148 751 -90 99 25 260 102 341 163 78 60 228 216
277 290 123 185 174 376 164 617 -8 190 -48 331 -141 498 -72 129 -165 240
-420 501 -266 272 -307 320 -385 450 -94 156 -151 335 -151 479 0 288 181 551
500 723 118 64 664 274 945 364 576 183 1192 290 1785 308 115 4 830 -2 960
-8z m2509 -2350 c242 -64 424 -298 424 -545 0 -149 -59 -277 -179 -389 -150
-141 -353 -185 -539 -117 -156 57 -277 161 -345 299 -40 80 -43 94 -48 186 -4
81 -1 111 16 167 62 202 237 364 437 404 65 13 176 11 234 -5z m-6490 -478
c174 -61 312 -208 367 -393 27 -89 24 -231 -8 -314 -101 -271 -377 -421 -656
-355 -95 22 -160 61 -237 139 -117 118 -179 261 -178 416 0 148 50 267 158
375 75 75 164 127 257 151 75 19 212 10 297 -19z m11087 -4212 c51 -30 94 -97
94 -146 -1 -48 -31 -109 -73 -146 -148 -130 -358 16 -278 193 51 112 162 154
257 99z m-15591 -1890 c145 -323 423 -896 519 -1075 211 -388 398 -636 608
-804 99 -79 169 -121 276 -165 86 -35 89 -35 237 -36 139 0 156 2 238 29 105
34 227 96 353 177 50 32 93 59 97 59 3 0 306 -307 673 -682 368 -376 736 -751
818 -835 l149 -152 -81 -86 c-142 -147 -239 -317 -264 -463 -11 -63 -10 -79
10 -159 60 -242 262 -532 586 -837 310 -292 614 -534 1293 -1027 94 -68 170
-125 168 -127 -5 -5 -546 228 -815 352 -482 223 -867 429 -1380 739 -1043 630
-1705 1227 -2227 2007 -467 699 -852 1523 -1142 2445 -76 241 -177 602 -206
733 -14 64 -28 128 -31 142 -11 51 15 1 121 -235z m4314 -1080 c207 -43 381
-209 436 -415 19 -69 19 -219 1 -286 -22 -84 -76 -174 -146 -244 -106 -106
-213 -150 -365 -150 -104 0 -251 31 -316 66 -163 89 -292 377 -261 582 14 96
45 170 102 245 128 170 337 247 549 202z m10875 -612 c-595 -916 -1153 -1621
-1784 -2253 -771 -773 -1513 -1230 -2550 -1568 -669 -218 -1538 -392 -2305
-461 -451 -40 -482 -38 -255 19 342 86 1087 299 1290 368 278 96 492 195 650
300 208 138 323 256 405 417 61 120 79 207 72 350 -6 127 -32 224 -108 414
-28 68 -49 127 -47 131 4 10 1867 1300 1878 1300 4 0 27 -28 50 -62 24 -35 94
-113 154 -174 128 -128 212 -178 328 -194 158 -23 374 38 627 176 378 205 802
557 1525 1265 116 114 213 205 215 203 2 -2 -63 -106 -145 -231z m-4411 -94
c185 -28 348 -168 404 -349 24 -79 22 -207 -5 -295 -68 -223 -266 -368 -502
-369 -226 -1 -406 142 -466 369 -18 64 -18 196 0 260 47 175 199 331 366 373
39 10 62 14 118 21 7 0 46 -4 85 -10z"/>
</g>
</svg>
